<mxfile host="app.diagrams.net" modified="2021-03-01T16:49:01.540Z" agent="5.0 (Windows)" etag="M6hcv8Y7bXdhKwirZE0p" version="14.4.3" type="github">
  <diagram id="R2lEEEUBdFMjLlhIrx00" name="Page-1">
    <mxGraphModel dx="1422" dy="791" grid="1" gridSize="10" guides="1" tooltips="1" connect="1" arrows="1" fold="1" page="1" pageScale="1" pageWidth="850" pageHeight="1100" math="0" shadow="0" extFonts="Permanent Marker^https://fonts.googleapis.com/css?family=Permanent+Marker">
      <root>
        <mxCell id="0" />
        <mxCell id="1" parent="0" />
        <mxCell id="-mSlCq6R0UHo25LJVklp-1" value="" style="rounded=0;whiteSpace=wrap;html=1;" vertex="1" parent="1">
          <mxGeometry x="40" y="240" width="80" height="40" as="geometry" />
        </mxCell>
        <mxCell id="-mSlCq6R0UHo25LJVklp-22" style="edgeStyle=orthogonalEdgeStyle;rounded=0;orthogonalLoop=1;jettySize=auto;html=1;entryX=0;entryY=0.5;entryDx=0;entryDy=0;endArrow=none;endFill=0;" edge="1" parent="1" source="-mSlCq6R0UHo25LJVklp-3" target="-mSlCq6R0UHo25LJVklp-11">
          <mxGeometry relative="1" as="geometry" />
        </mxCell>
        <mxCell id="-mSlCq6R0UHo25LJVklp-30" style="rounded=0;orthogonalLoop=1;jettySize=auto;html=1;entryX=0;entryY=0.5;entryDx=0;entryDy=0;endArrow=none;endFill=0;strokeColor=#000000;" edge="1" parent="1" source="-mSlCq6R0UHo25LJVklp-3" target="-mSlCq6R0UHo25LJVklp-12">
          <mxGeometry relative="1" as="geometry" />
        </mxCell>
        <mxCell id="-mSlCq6R0UHo25LJVklp-3" value="STUDENTE" style="rounded=0;whiteSpace=wrap;html=1;" vertex="1" parent="1">
          <mxGeometry x="120" y="440" width="80" height="40" as="geometry" />
        </mxCell>
        <mxCell id="-mSlCq6R0UHo25LJVklp-24" style="edgeStyle=orthogonalEdgeStyle;rounded=0;orthogonalLoop=1;jettySize=auto;html=1;exitX=1;exitY=0.5;exitDx=0;exitDy=0;endArrow=none;endFill=0;strokeColor=#000000;" edge="1" parent="1" source="-mSlCq6R0UHo25LJVklp-4" target="-mSlCq6R0UHo25LJVklp-14">
          <mxGeometry relative="1" as="geometry" />
        </mxCell>
        <mxCell id="-mSlCq6R0UHo25LJVklp-4" value="CORSO" style="rounded=0;whiteSpace=wrap;html=1;" vertex="1" parent="1">
          <mxGeometry x="360" y="440" width="80" height="40" as="geometry" />
        </mxCell>
        <mxCell id="-mSlCq6R0UHo25LJVklp-5" value="" style="rounded=0;whiteSpace=wrap;html=1;" vertex="1" parent="1">
          <mxGeometry x="40" y="320" width="80" height="40" as="geometry" />
        </mxCell>
        <mxCell id="-mSlCq6R0UHo25LJVklp-31" style="edgeStyle=none;rounded=0;orthogonalLoop=1;jettySize=auto;html=1;entryX=1;entryY=0.5;entryDx=0;entryDy=0;endArrow=none;endFill=0;strokeColor=#000000;" edge="1" parent="1" source="-mSlCq6R0UHo25LJVklp-6" target="-mSlCq6R0UHo25LJVklp-12">
          <mxGeometry relative="1" as="geometry" />
        </mxCell>
        <mxCell id="-mSlCq6R0UHo25LJVklp-35" style="edgeStyle=none;rounded=0;orthogonalLoop=1;jettySize=auto;html=1;endArrow=none;endFill=0;strokeColor=#000000;" edge="1" parent="1" source="-mSlCq6R0UHo25LJVklp-6" target="-mSlCq6R0UHo25LJVklp-34">
          <mxGeometry relative="1" as="geometry" />
        </mxCell>
        <mxCell id="-mSlCq6R0UHo25LJVklp-6" value="PROGETTO" style="rounded=0;whiteSpace=wrap;html=1;" vertex="1" parent="1">
          <mxGeometry x="600" y="440" width="80" height="40" as="geometry" />
        </mxCell>
        <mxCell id="-mSlCq6R0UHo25LJVklp-28" style="edgeStyle=orthogonalEdgeStyle;rounded=0;orthogonalLoop=1;jettySize=auto;html=1;entryX=0.5;entryY=1;entryDx=0;entryDy=0;endArrow=none;endFill=0;strokeColor=#000000;" edge="1" parent="1" source="-mSlCq6R0UHo25LJVklp-7" target="-mSlCq6R0UHo25LJVklp-15">
          <mxGeometry relative="1" as="geometry" />
        </mxCell>
        <mxCell id="-mSlCq6R0UHo25LJVklp-7" value="DOCENTE" style="rounded=0;whiteSpace=wrap;html=1;" vertex="1" parent="1">
          <mxGeometry x="360" y="600" width="80" height="40" as="geometry" />
        </mxCell>
        <mxCell id="-mSlCq6R0UHo25LJVklp-9" value="" style="rounded=0;whiteSpace=wrap;html=1;" vertex="1" parent="1">
          <mxGeometry x="40" y="160" width="80" height="40" as="geometry" />
        </mxCell>
        <mxCell id="-mSlCq6R0UHo25LJVklp-10" value="" style="rhombus;whiteSpace=wrap;html=1;" vertex="1" parent="1">
          <mxGeometry x="240" y="440" width="80" height="40" as="geometry" />
        </mxCell>
        <mxCell id="-mSlCq6R0UHo25LJVklp-23" style="edgeStyle=orthogonalEdgeStyle;rounded=0;orthogonalLoop=1;jettySize=auto;html=1;entryX=0;entryY=0.5;entryDx=0;entryDy=0;endArrow=none;endFill=0;strokeColor=#000000;" edge="1" parent="1" source="-mSlCq6R0UHo25LJVklp-11" target="-mSlCq6R0UHo25LJVklp-4">
          <mxGeometry relative="1" as="geometry" />
        </mxCell>
        <mxCell id="-mSlCq6R0UHo25LJVklp-11" value="SEGUE" style="rhombus;whiteSpace=wrap;html=1;" vertex="1" parent="1">
          <mxGeometry x="240" y="440" width="80" height="40" as="geometry" />
        </mxCell>
        <mxCell id="-mSlCq6R0UHo25LJVklp-27" style="edgeStyle=orthogonalEdgeStyle;rounded=0;orthogonalLoop=1;jettySize=auto;html=1;exitX=0.5;exitY=1;exitDx=0;exitDy=0;entryX=0.5;entryY=0;entryDx=0;entryDy=0;endArrow=none;endFill=0;strokeColor=#000000;" edge="1" parent="1" source="-mSlCq6R0UHo25LJVklp-12" target="-mSlCq6R0UHo25LJVklp-4">
          <mxGeometry relative="1" as="geometry" />
        </mxCell>
        <mxCell id="-mSlCq6R0UHo25LJVklp-12" value="ESEGUE" style="rhombus;whiteSpace=wrap;html=1;" vertex="1" parent="1">
          <mxGeometry x="360" y="360" width="80" height="40" as="geometry" />
        </mxCell>
        <mxCell id="-mSlCq6R0UHo25LJVklp-25" style="edgeStyle=orthogonalEdgeStyle;rounded=0;orthogonalLoop=1;jettySize=auto;html=1;exitX=1;exitY=0.5;exitDx=0;exitDy=0;entryX=0;entryY=0.5;entryDx=0;entryDy=0;endArrow=none;endFill=0;strokeColor=#000000;" edge="1" parent="1" source="-mSlCq6R0UHo25LJVklp-14" target="-mSlCq6R0UHo25LJVklp-6">
          <mxGeometry relative="1" as="geometry" />
        </mxCell>
        <mxCell id="-mSlCq6R0UHo25LJVklp-14" value="HA" style="rhombus;whiteSpace=wrap;html=1;" vertex="1" parent="1">
          <mxGeometry x="480" y="440" width="80" height="40" as="geometry" />
        </mxCell>
        <mxCell id="-mSlCq6R0UHo25LJVklp-26" style="edgeStyle=orthogonalEdgeStyle;rounded=0;orthogonalLoop=1;jettySize=auto;html=1;endArrow=none;endFill=0;strokeColor=#000000;" edge="1" parent="1" source="-mSlCq6R0UHo25LJVklp-15" target="-mSlCq6R0UHo25LJVklp-4">
          <mxGeometry relative="1" as="geometry" />
        </mxCell>
        <mxCell id="-mSlCq6R0UHo25LJVklp-15" value="INSEGNA" style="rhombus;whiteSpace=wrap;html=1;" vertex="1" parent="1">
          <mxGeometry x="360" y="520" width="80" height="40" as="geometry" />
        </mxCell>
        <mxCell id="-mSlCq6R0UHo25LJVklp-16" value="" style="rhombus;whiteSpace=wrap;html=1;" vertex="1" parent="1">
          <mxGeometry x="160" y="240" width="80" height="40" as="geometry" />
        </mxCell>
        <mxCell id="-mSlCq6R0UHo25LJVklp-17" value="" style="rhombus;whiteSpace=wrap;html=1;" vertex="1" parent="1">
          <mxGeometry x="160" y="160" width="80" height="40" as="geometry" />
        </mxCell>
        <mxCell id="-mSlCq6R0UHo25LJVklp-37" style="edgeStyle=none;rounded=0;orthogonalLoop=1;jettySize=auto;html=1;endArrow=none;endFill=0;strokeColor=#000000;" edge="1" parent="1" source="-mSlCq6R0UHo25LJVklp-34" target="-mSlCq6R0UHo25LJVklp-36">
          <mxGeometry relative="1" as="geometry" />
        </mxCell>
        <mxCell id="-mSlCq6R0UHo25LJVklp-34" value="HA" style="shape=rhombus;double=1;perimeter=rhombusPerimeter;whiteSpace=wrap;html=1;align=center;" vertex="1" parent="1">
          <mxGeometry x="600" y="520" width="80" height="40" as="geometry" />
        </mxCell>
        <mxCell id="-mSlCq6R0UHo25LJVklp-36" value="ALLEGATO" style="shape=ext;margin=3;double=1;whiteSpace=wrap;html=1;align=center;" vertex="1" parent="1">
          <mxGeometry x="600" y="600" width="80" height="40" as="geometry" />
        </mxCell>
      </root>
    </mxGraphModel>
  </diagram>
</mxfile>
